<svg xmlns="http://www.w3.org/2000/svg" width="32" height="32" viewBox="0 0 32 32" fill="none">
  <rect width="32" height="32" rx="8" fill="#1C1C1C"/>
  <path d="M24 13.28c-.87.87-2.28.87-3.15 0l-1.37-1.37-2.02 2.02.26.26c.87.87.87 2.28 0 3.15-.87.87-2.28.87-3.15 0l-.26-.26-2.02 2.02 1.37 1.37c.87.87.87 2.28 0 3.15-.87.87-2.28.87-3.15 0L8 21.15c-.87-.87-.87-2.28 0-3.15l7.15-7.15c.87-.87 2.28-.87 3.15 0l.26.26 2.02-2.02-1.37-1.37c-.87-.87-.87-2.28 0-3.15.87-.87 2.28-.87 3.15 0l2.47 2.47c.87.87.87 2.28 0 3.15l-1.37 1.37 2.02 2.02 1.37-1.37c.87-.87 2.28-.87 3.15 0s.87 2.28 0 3.15L24 21.15c-.87.87-2.28.87-3.15 0l-1.37-1.37-2.02 2.02.26.26c.87.87.87 2.28 0 3.15-.87.87-2.28.87-3.15 0l-.26-.26-2.02 2.02 1.37 1.37c.87.87.87 2.28 0 3.15-.87.87-2.28.87-3.15 0L8 29.15c-.87-.87-.87-2.28 0-3.15l7.15-7.15c.87-.87 2.28-.87 3.15 0l.26.26 2.02-2.02-1.37-1.37c-.87-.87-.87-2.28 0-3.15.87-.87 2.28-.87 3.15 0l2.47 2.47c.87.87.87 2.28 0 3.15z" fill="#E5B06E"/>
</svg>